{
    "accessors": {
        "accessor_buffer_Icosphere_0": {
            "bufferView": "bufferView_buffer_Icosphere_0",
            "byteOffset": 0,
            "byteStride": 24,
            "componentType": 5126,
            "count": 240,
            "max": [
                0.9510578513145447,
                0.9999999403953552,
                1.0
            ],
            "min": [
                -0.9510578513145447,
                -0.9999999403953552,
                -1.0
            ],
            "type": "VEC3"
        },
        "accessor_buffer_Icosphere_1": {
            "bufferView": "bufferView_buffer_Icosphere_0",
            "byteOffset": 12,
            "byteStride": 24,
            "componentType": 5126,
            "count": 240,
            "max": [
                0.9920774102210999,
                0.9435215592384338,
                0.9435237646102905
            ],
            "min": [
                -0.9920774102210999,
                -0.9435215592384338,
                -0.9435237646102905
            ],
            "type": "VEC3"
        },
        "accessor_buffer_Icosphere_2": {
            "bufferView": "bufferView_buffer_Icosphere_1",
            "byteOffset": 0,
            "byteStride": 2,
            "componentType": 5123,
            "count": 240,
            "max": [
                239
            ],
            "min": [
                0
            ],
            "type": "SCALAR"
        },
        "accessor_buffer_Mesh_0": {
            "bufferView": "bufferView_buffer_Mesh_0",
            "byteOffset": 0,
            "byteStride": 36,
            "componentType": 5126,
            "count": 1984,
            "max": [
                1.000000238418579,
                0.9999991655349731,
                1.0
            ],
            "min": [
                -0.9999998211860657,
                -1.0000003576278687,
                -1.0
            ],
            "type": "VEC3"
        },
        "accessor_buffer_Mesh_1": {
            "bufferView": "bufferView_buffer_Mesh_0",
            "byteOffset": 12,
            "byteStride": 36,
            "componentType": 5126,
            "count": 1984,
            "max": [
                0.9904382824897766,
                0.9904387593269348,
                0.9951386451721191
            ],
            "min": [
                -0.9904382824897766,
                -0.9904382824897766,
                -0.9951385259628296
            ],
            "type": "VEC3"
        },
        "accessor_buffer_Mesh_2": {
            "bufferView": "bufferView_buffer_Mesh_0",
            "byteOffset": 24,
            "byteStride": 36,
            "componentType": 5126,
            "count": 1984,
            "max": [
                1.0,
                1.0,
                1.0
            ],
            "min": [
                1.0,
                1.0,
                1.0
            ],
            "type": "VEC3"
        },
        "accessor_buffer_Mesh_3": {
            "bufferView": "bufferView_buffer_Mesh_1",
            "byteOffset": 0,
            "byteStride": 2,
            "componentType": 5123,
            "count": 2880,
            "max": [
                1983
            ],
            "min": [
                0
            ],
            "type": "SCALAR"
        }
    },
    "asset": {
        "profile": {
            "api": "WebGL",
            "version": "1.0.3"
        },
        "version": "1.0"
    },
    "bufferViews": {
        "bufferView_buffer_Icosphere_0": {
            "buffer": "buffer_combined",
            "byteLength": 5760,
            "byteOffset": 0,
            "target": 34962
        },
        "bufferView_buffer_Icosphere_1": {
            "buffer": "buffer_combined",
            "byteLength": 480,
            "byteOffset": 5760,
            "target": 34963
        },
        "bufferView_buffer_Mesh_0": {
            "buffer": "buffer_combined",
            "byteLength": 71424,
            "byteOffset": 6240,
            "target": 34962
        },
        "bufferView_buffer_Mesh_1": {
            "buffer": "buffer_combined",
            "byteLength": 5760,
            "byteOffset": 77664,
            "target": 34963
        }
    },
    "buffers": {
        "buffer_combined": {
            "byteLength": 83424,
            "type": "arraybuffer",
            "uri": "buffer_combined.bin"
        }
    },
    "cameras": {
        "camera_Camera": {
            "name": "Camera",
            "perspective": {
                "aspectRatio": 1.703595982340029,
                "yfov": 0.5033799409866333,
                "zfar": 100.0,
                "znear": 0.10000000149011612
            },
            "type": "perspective"
        }
    },
    "extensions": {
        "KHR_materials_common": {
            "lights": {
                "light_Lamp": {
                    "name": "Lamp",
                    "point": {
                        "color": [
                            1.0,
                            1.0,
                            1.0
                        ],
                        "constantAttenuation": 1,
                        "linearAttenuation": 0,
                        "quadraticAttenuation": 0.03333335240683057
                    },
                    "type": "point"
                }
            }
        }
    },
    "extensionsUsed": [
        "KHR_materials_common"
    ],
    "meshes": {
        "mesh_Icosphere": {
            "name": "Icosphere",
            "primitives": [
                {
                    "attributes": {
                        "NORMAL": "accessor_buffer_Icosphere_1",
                        "POSITION": "accessor_buffer_Icosphere_0"
                    },
                    "indices": "accessor_buffer_Icosphere_2",
                    "mode": 4
                }
            ]
        },
        "mesh_Mesh": {
            "name": "Mesh",
            "primitives": [
                {
                    "attributes": {
                        "COLOR_0": "accessor_buffer_Mesh_2",
                        "NORMAL": "accessor_buffer_Mesh_1",
                        "POSITION": "accessor_buffer_Mesh_0"
                    },
                    "indices": "accessor_buffer_Mesh_3",
                    "mode": 4
                }
            ]
        }
    },
    "nodes": {
        "node_Camera": {
            "camera": "camera_Camera",
            "children": [],
            "matrix": [
                0.6859206557273865,
                0.7276763319969177,
                0.0,
                0.0,
                -0.32401347160339355,
                0.305420845746994,
                0.8953956365585327,
                0.0,
                0.6515582203865051,
                -0.6141703724861145,
                0.44527140259742737,
                0.0,
                7.481131553649902,
                -6.5076398849487305,
                5.34366512298584,
                1.0
            ],
            "name": "Camera"
        },
        "node_Icosphere": {
            "children": [],
            "matrix": [
                0.1716480255126953,
                0.0,
                0.0,
                0.0,
                0.0,
                0.1716480255126953,
                0.0,
                0.0,
                0.0,
                0.0,
                0.1716480255126953,
                0.0,
                0.0,
                0.0,
                5.716047286987305,
                1.0
            ],
            "meshes": [
                "mesh_Icosphere"
            ],
            "name": "Icosphere"
        },
        "node_Lamp": {
            "children": [],
            "extensions": {
                "KHR_materials_common": {
                    "light": "light_Lamp"
                }
            },
            "matrix": [
                -0.29086464643478394,
                0.9551711678504944,
                -0.05518905818462372,
                0.0,
                -0.7711008191108704,
                -0.1998833566904068,
                0.6045247316360474,
                0.0,
                0.5663931965827942,
                0.21839119493961334,
                0.7946722507476807,
                0.0,
                4.076245307922363,
                1.0054539442062378,
                5.903861999511719,
                1.0
            ],
            "name": "Lamp"
        },
        "node_Sphere": {
            "children": [],
            "matrix": [
                1.0,
                0.0,
                0.0,
                0.0,
                0.0,
                1.0,
                0.0,
                0.0,
                0.0,
                0.0,
                1.0,
                0.0,
                0.0,
                0.0,
                2.589080333709717,
                1.0
            ],
            "meshes": [
                "mesh_Mesh"
            ],
            "name": "Sphere"
        }
    },
    "samplers": {
        "sampler_default": {}
    },
    "scene": "scene_Scene",
    "scenes": {
        "scene_Scene": {
            "extras": {
                "active_camera": "camera_Camera",
                "background_color": [
                    0.05087608844041824,
                    0.05087608844041824,
                    0.05087608844041824
                ],
                "frames_per_second": 24
            },
            "name": "Scene",
            "nodes": [
                "node_Sphere",
                "node_Icosphere",
                "node_Lamp",
                "node_Camera"
            ]
        }
    }
}
